<svg width="44" height="60" viewBox="0 0 44 60" fill="none" xmlns="http://www.w3.org/2000/svg">
<path d="M40.3512 35.0632C40.3512 35.6678 40.2869 36.2399 40.2231 36.7811C39.0384 36.7492 37.9184 36.6539 36.798 36.4948C30.4275 35.6044 24.7615 32.9007 20.5042 29.0837C20.216 28.8288 19.9278 28.5749 19.6724 28.32C21.5603 25.2033 25.3065 23.2628 28.6349 23.2628C29.9154 23.2628 31.1639 23.4853 32.3163 23.8674L39.6828 7.96175H43.7444L36.3816 26.189C38.8145 28.3519 40.3512 31.5325 40.3512 35.0632Z" fill="#212121"/>
<path d="M4.05079 38.9075C5.77579 38.9075 7.46839 38.6535 9.0338 38.178C12.0045 37.259 14.5918 35.5471 16.5726 33.2645C17.403 32.3135 18.1376 31.2353 18.7126 30.0943C23.8237 34.9759 30.979 38.2733 39.0286 38.9704C39.4754 40.0485 39.7946 41.1901 39.987 42.395C40.1142 43.2507 40.1785 44.1064 40.1785 44.9945C40.1466 51.0172 36.7924 56.2799 31.8408 59.0381C31.3935 59.0704 30.9471 59.0704 30.4679 59.0704C28.7743 59.0704 27.1455 58.9432 25.5163 58.6893C26.5382 57.5482 27.4967 56.3114 28.2636 54.9173C29.3817 52.9196 30.1482 50.859 30.5632 48.735C29.1902 52.2226 26.8902 55.3928 23.6641 57.7707C23.4402 57.9289 23.2168 58.0875 22.9929 58.2138C17.6583 57.0727 12.8992 54.7587 9.0338 51.6199C4.65771 48.1009 1.49499 43.5046 0.057724 38.3367C1.33539 38.7174 2.67737 38.9075 4.05079 38.9075Z" fill="url(#paint0_linear_805_73)"/>
<mask id="mask0_805_73" style="mask-type:luminance" maskUnits="userSpaceOnUse" x="0" y="0" width="38" height="38">
<path d="M9.43595e-05 5.7297L32.0071 0L37.7368 32.007L5.7298 37.7367L9.43595e-05 5.7297Z" fill="white"/>
</mask>
<g mask="url(#mask0_805_73)">
<path d="M21.1501 18.0423L22.0734 16.6684C22.7136 15.7484 22.9277 14.6585 22.7568 13.6329C22.5615 12.612 21.9823 11.6638 21.0628 11.0231L19.7203 10.0552C19.7006 10.0411 19.6964 10.0139 19.71 9.99419C19.7236 9.97447 19.7504 9.96931 19.771 9.98292L21.144 10.9057C22.064 11.5469 23.1534 11.761 24.1786 11.5901C25.199 11.3948 26.1472 10.8161 26.7879 9.89561L27.7553 8.55364C27.7689 8.53439 27.7961 8.52923 27.8159 8.54284C27.8356 8.55693 27.8407 8.58415 27.8271 8.60386L26.9048 9.97729C26.2636 10.8978 26.05 11.9877 26.2204 13.0128C26.4166 14.0337 26.9944 14.9819 27.9149 15.6226L29.2569 16.5909C29.2766 16.605 29.2808 16.6323 29.2672 16.652C29.2536 16.6717 29.2264 16.6768 29.2066 16.6632L27.8337 15.7395C27.3732 15.4189 26.871 15.2053 26.3551 15.0936C25.8402 14.9814 25.3112 14.9702 24.7991 15.0556C23.7787 15.2513 22.83 15.8296 22.1898 16.7501L21.2224 18.0925C21.2088 18.1118 21.1815 18.1164 21.1618 18.1028C21.1421 18.0892 21.137 18.062 21.1501 18.0423Z" fill="#F25E57"/>
<path d="M29.2827 6.96524L30.0586 7.52475C30.0698 7.53273 30.0727 7.54869 30.0647 7.55995C30.0562 7.57169 30.0412 7.57404 30.0295 7.56653L29.2358 7.03283C28.7039 6.66248 28.074 6.53857 27.4817 6.63714C26.8916 6.75026 26.3439 7.08493 25.9735 7.61675L25.4145 8.39265C25.4065 8.40391 25.3905 8.40673 25.3788 8.39875C25.3675 8.39077 25.3647 8.37481 25.3727 8.36355L25.9059 7.56934C26.2763 7.03753 26.3997 6.40761 26.3012 5.81477C26.188 5.22522 25.8538 4.67651 25.322 4.30663L24.5461 3.74666C24.5348 3.73868 24.532 3.72272 24.54 3.71146C24.548 3.70019 24.564 3.6969 24.5752 3.70488L25.3689 4.23904C25.9003 4.60892 26.5307 4.73284 27.123 4.63426C27.7131 4.52114 28.2608 4.18694 28.6312 3.65466L29.1907 2.87876C29.1987 2.86703 29.2142 2.86468 29.2254 2.87266C29.2372 2.88064 29.24 2.89613 29.2325 2.90786L28.6988 3.70207C28.3284 4.23341 28.205 4.8638 28.3036 5.45616C28.4167 6.04665 28.7509 6.59489 29.2827 6.96524Z" fill="#F25E57"/>
<path d="M29.5052 20.9924L29.9234 20.3705C30.2135 19.9536 30.3102 19.4598 30.2327 18.9956C30.144 18.5333 29.8821 18.1038 29.4653 17.8137L28.8574 17.3753C28.849 17.3692 28.8466 17.3565 28.8527 17.3476C28.8593 17.3387 28.8715 17.3363 28.8804 17.3424L29.5024 17.7611C29.9187 18.0512 30.4125 18.1479 30.8767 18.0705C31.3386 17.9822 31.7681 17.7203 32.0582 17.3035L32.4961 16.6956C32.5027 16.6862 32.5149 16.6844 32.5238 16.6905C32.5327 16.6966 32.5351 16.7092 32.529 16.7182L32.1112 17.3401C31.8211 17.7569 31.7244 18.2507 31.8014 18.7145C31.8901 19.1773 32.1521 19.6068 32.5689 19.8968L33.1762 20.3353C33.1852 20.3414 33.1875 20.354 33.1809 20.3625C33.1748 20.3714 33.1626 20.3742 33.1533 20.3681L32.5318 19.9499C32.115 19.6593 31.6216 19.5626 31.1574 19.6401C30.6955 19.7283 30.2661 19.9907 29.976 20.4071L29.538 21.0149C29.5315 21.0243 29.5193 21.0262 29.5103 21.0201C29.5014 21.0135 29.4991 21.0013 29.5052 20.9924Z" fill="#F25E57"/>
<path d="M11.3939 17.4049L11.79 16.8158C12.0646 16.4215 12.1557 15.954 12.0829 15.5142C11.9989 15.0767 11.7511 14.6698 11.3568 14.3952L10.7809 13.9802C10.7729 13.9741 10.7705 13.9624 10.7766 13.9539C10.7823 13.9455 10.794 13.9436 10.8025 13.9493L11.3915 14.3449C11.7858 14.62 12.2533 14.7115 12.6927 14.6383C13.1301 14.5548 13.5362 14.3065 13.8112 13.9122L14.2262 13.3362C14.2323 13.3283 14.2435 13.3259 14.2525 13.3315C14.2609 13.3376 14.2628 13.3494 14.2576 13.3578L13.8614 13.9469C13.5869 14.3412 13.4953 14.8087 13.5681 15.248C13.6521 15.686 13.9004 16.0929 14.2947 16.3675L14.8702 16.7829C14.8786 16.789 14.8805 16.8003 14.8744 16.8088C14.8687 16.8172 14.857 16.8195 14.8486 16.8139L14.26 16.4178C13.8652 16.1427 13.3977 16.0512 12.9583 16.1244C12.5209 16.2079 12.1149 16.4562 11.8398 16.851L11.4253 17.4265C11.4192 17.4349 11.4075 17.4373 11.399 17.4312C11.3906 17.4251 11.3883 17.4138 11.3939 17.4049Z" fill="#F25E57"/>
<path d="M16.0494 23.2759L16.5512 22.5306C16.899 22.0307 17.0149 21.4383 16.9225 20.8816C16.8164 20.3273 16.5019 19.8123 16.002 19.4641L15.273 18.9383C15.2627 18.9313 15.2604 18.9163 15.2674 18.9055C15.2754 18.8947 15.2899 18.8923 15.3007 18.8994L16.0466 19.4007C16.546 19.749 17.1379 19.8649 17.6946 19.7724C18.2485 19.6664 18.7634 19.3519 19.1117 18.852L19.6369 18.123C19.6444 18.1127 19.6595 18.1099 19.6698 18.1174C19.6806 18.1249 19.6829 18.1399 19.6759 18.1502L19.1751 18.8966C18.8268 19.396 18.7108 19.9884 18.8033 20.5451C18.9094 21.0989 19.2239 21.6143 19.7238 21.9626L20.4527 22.4878C20.463 22.4963 20.4654 22.5104 20.4584 22.5212C20.4509 22.532 20.4358 22.5348 20.4255 22.5277L19.6792 22.026C19.1798 21.6777 18.5878 21.5617 18.0312 21.6547C17.4773 21.7603 16.9624 22.0748 16.6141 22.5747L16.0888 23.3036C16.0813 23.314 16.0668 23.3168 16.056 23.3093C16.0452 23.3018 16.0428 23.2872 16.0494 23.2759Z" fill="#F25E57"/>
<path d="M6.44433 21.5923L6.76633 21.1135C6.98929 20.7929 7.06392 20.4127 7.0043 20.055C6.93624 19.6997 6.73488 19.3692 6.41382 19.1453L5.94631 18.8083C5.93927 18.8032 5.93786 18.7938 5.94256 18.7867C5.94725 18.7802 5.95664 18.7783 5.96368 18.783L6.44245 19.105C6.76304 19.3284 7.14277 19.4026 7.49998 19.3434C7.85577 19.2749 8.18623 19.0735 8.40966 18.7525L8.74667 18.2845C8.75183 18.2779 8.76122 18.2765 8.76826 18.2812C8.77483 18.2859 8.77719 18.2953 8.77203 18.3023L8.4505 18.7806C8.22707 19.1022 8.15242 19.4819 8.21204 19.8391C8.2801 20.1949 8.48195 20.5258 8.80254 20.7488L9.27051 21.0863C9.27708 21.0914 9.27896 21.1008 9.2738 21.1079C9.26911 21.1144 9.25971 21.1163 9.25267 21.1116L8.7739 20.7896C8.45378 20.5666 8.07357 20.4915 7.71636 20.5512C7.36057 20.6192 7.03013 20.8211 6.80717 21.1416L6.47014 21.6096C6.46498 21.6167 6.45513 21.6181 6.44856 21.6134C6.44151 21.6087 6.43964 21.5993 6.44433 21.5923Z" fill="#F25E57"/>
<path d="M9.74127 22.8845L10.2088 23.1994C10.5223 23.4177 10.8941 23.4905 11.2433 23.4327C11.5906 23.3661 11.9141 23.1685 12.1318 22.8549L12.4618 22.3977C12.4665 22.3907 12.4759 22.3898 12.4825 22.394C12.4891 22.3987 12.4909 22.4076 12.4862 22.4146L12.1722 22.8831C11.9535 23.1962 11.8807 23.5679 11.9394 23.9171C12.0056 24.2654 12.2027 24.5888 12.5167 24.8066L12.9739 25.1366C12.9805 25.1418 12.9819 25.1507 12.9772 25.1573C12.9725 25.1643 12.9636 25.1662 12.9566 25.1615L12.4886 24.847C12.175 24.6283 11.8037 24.5555 11.4545 24.6137C11.1067 24.6804 10.7838 24.8775 10.5655 25.1911L10.236 25.6487C10.2308 25.6548 10.2214 25.6567 10.2149 25.652C10.2083 25.6473 10.2064 25.6384 10.2111 25.6313L10.5256 25.1634C10.7439 24.8498 10.8166 24.4781 10.7584 24.1288C10.6918 23.7805 10.4946 23.4576 10.1815 23.2393L9.72389 22.9094C9.71732 22.9042 9.71544 22.8953 9.72014 22.8887C9.72483 22.8821 9.73423 22.8798 9.74127 22.8845Z" fill="#F25E57"/>
<path d="M4.91792 25.3131L5.31876 25.5825C5.58678 25.7693 5.90456 25.8318 6.20403 25.782C6.50209 25.7247 6.7781 25.5558 6.96538 25.2877L7.24748 24.8958C7.2517 24.8902 7.25968 24.8888 7.26531 24.8925C7.27094 24.8967 7.27236 24.9047 7.2686 24.9104L6.99965 25.3112C6.81236 25.5797 6.74992 25.8984 6.80015 26.1969C6.85694 26.495 7.02593 26.7715 7.29442 26.9588L7.68588 27.2413C7.69151 27.2456 7.69293 27.2535 7.68917 27.2592C7.68495 27.2648 7.67697 27.2662 7.67134 27.2625L7.27048 26.993C7.00199 26.8057 6.68422 26.7433 6.38475 26.7931C6.08716 26.8503 5.81069 27.0193 5.62387 27.2878L5.34177 27.6793C5.33707 27.6849 5.32956 27.6863 5.32346 27.6826C5.31783 27.6788 5.31642 27.6708 5.32018 27.6647L5.58961 27.2639C5.77643 26.9954 5.83885 26.6771 5.78909 26.3777C5.73183 26.0805 5.56331 25.8036 5.29483 25.6163L4.90336 25.3337C4.89726 25.3295 4.89584 25.322 4.90007 25.3164C4.90382 25.3107 4.91229 25.3089 4.91792 25.3131Z" fill="#F25E57"/>
<path d="M7.04847 29.9436L7.44885 30.213C7.71734 30.3998 8.03511 30.4623 8.33458 30.4125C8.63217 30.3553 8.90864 30.1867 9.09546 29.9183L9.37802 29.5268C9.38178 29.5207 9.38975 29.5193 9.39586 29.5235C9.40149 29.5273 9.40291 29.5352 9.39915 29.5409L9.12972 29.9417C8.94291 30.2102 8.88094 30.5289 8.93022 30.8275C8.98749 31.1255 9.156 31.4025 9.42449 31.5897L9.81643 31.8718C9.82206 31.8761 9.82347 31.884 9.81925 31.8897C9.81549 31.8953 9.80752 31.8967 9.80141 31.893L9.40103 31.6235C9.13254 31.4367 8.81477 31.3738 8.5153 31.4236C8.21724 31.4808 7.94123 31.6498 7.75395 31.9183L7.47184 32.3102C7.46762 32.3159 7.45964 32.3173 7.45401 32.3135C7.44837 32.3093 7.44697 32.3013 7.45073 32.2952L7.72016 31.8944C7.90697 31.6259 7.96892 31.3081 7.91917 31.0086C7.86237 30.7111 7.69339 30.4341 7.4249 30.2473L7.03344 29.9647C7.02781 29.9605 7.0264 29.9525 7.03016 29.9469C7.03438 29.9408 7.04236 29.9394 7.04847 29.9436Z" fill="#F25E57"/>
<path d="M7.73285 10.5387L8.13371 10.8081C8.40173 10.9954 8.71998 11.0578 9.01898 11.0076C9.31657 10.9508 9.5935 10.7818 9.78031 10.5133L10.0624 10.1214C10.0666 10.1162 10.0746 10.1144 10.0803 10.1186C10.0859 10.1223 10.0873 10.1303 10.0835 10.1364L9.81458 10.5368C9.62776 10.8058 9.56487 11.1235 9.61462 11.423C9.67189 11.7206 9.84087 11.9975 10.1094 12.1848L10.5008 12.4674C10.5065 12.4711 10.5079 12.4791 10.5036 12.4848C10.4999 12.4904 10.4919 12.4918 10.4863 12.488L10.0854 12.2186C9.81692 12.0318 9.49915 11.9694 9.20015 12.0191C8.90209 12.0764 8.62562 12.2454 8.4388 12.5134L8.15624 12.9053C8.15201 12.911 8.14404 12.9124 8.1384 12.9081C8.13277 12.9044 8.13135 12.8964 8.13511 12.8903L8.40454 12.4899C8.59136 12.2214 8.65379 11.9027 8.60404 11.6037C8.54677 11.3057 8.37779 11.0292 8.10977 10.8419L7.71784 10.5598C7.7122 10.5556 7.71079 10.5476 7.71454 10.542C7.71877 10.5363 7.72675 10.5349 7.73285 10.5387Z" fill="#F25E57"/>
<path d="M18.9224 11.048L18.3004 10.6297C17.8841 10.3397 17.3903 10.243 16.9261 10.32C16.4642 10.4087 16.0347 10.6706 15.7451 11.0874L15.3067 11.6952C15.3006 11.7042 15.2879 11.7061 15.279 11.6999C15.2701 11.6934 15.2677 11.6816 15.2743 11.6727L15.692 11.0508C15.9821 10.6335 16.0788 10.1402 16.0014 9.67548C15.9131 9.21314 15.6507 8.78411 15.2344 8.49356L14.6265 8.05563C14.6176 8.04906 14.6157 8.03686 14.6218 8.02794C14.6279 8.01855 14.6402 8.01667 14.6495 8.02277L15.2715 8.44099C15.6878 8.73107 16.1811 8.82777 16.6454 8.75079C17.1072 8.66208 17.5372 8.40016 17.8268 7.98335L18.2652 7.37549C18.2713 7.36657 18.2835 7.36422 18.2929 7.37079C18.3014 7.37689 18.3042 7.3891 18.2976 7.39802L17.8799 8.01995C17.5898 8.43677 17.4931 8.93056 17.5701 9.39479C17.6588 9.85713 17.9207 10.2866 18.337 10.5772L18.9454 11.0151C18.9543 11.0217 18.9562 11.0339 18.9501 11.0428C18.944 11.0517 18.9313 11.0541 18.9224 11.048Z" fill="#F25E57"/>
<path d="M23.7521 18.1826C23.768 18.2704 23.7089 18.3549 23.6211 18.3709C23.5324 18.3868 23.4484 18.3277 23.4324 18.2399C23.4169 18.1512 23.4756 18.0672 23.5638 18.0517C23.6516 18.0357 23.7361 18.0944 23.7521 18.1826Z" fill="#F25E57"/>
<path d="M26.6923 19.8462C26.7078 19.9339 26.6496 20.0184 26.5613 20.0344C26.4731 20.0499 26.3891 19.9912 26.3736 19.903C26.3576 19.8147 26.4163 19.7307 26.5041 19.7147C26.5923 19.6992 26.6763 19.7579 26.6923 19.8462Z" fill="#F25E57"/>
<path d="M17.8688 18.2756C17.8843 18.3634 17.8261 18.4474 17.7378 18.4633C17.6496 18.4793 17.5655 18.4206 17.5496 18.3324C17.5336 18.2441 17.5923 18.1601 17.6805 18.1442C17.7688 18.1287 17.8528 18.1869 17.8688 18.2756Z" fill="#F25E57"/>
<path d="M17.8782 14.7186C17.8942 14.8068 17.8355 14.8908 17.7477 14.9068C17.659 14.9228 17.575 14.8641 17.5595 14.7758C17.5435 14.6876 17.6022 14.6031 17.6904 14.5876C17.7782 14.5716 17.8627 14.6303 17.8782 14.7186Z" fill="#F25E57"/>
<path d="M13.6601 11.6929C13.6761 11.7811 13.617 11.8652 13.5287 11.8811C13.4405 11.8971 13.3565 11.8384 13.3405 11.7502C13.325 11.6619 13.3837 11.5779 13.4719 11.5619C13.5597 11.5465 13.6442 11.6047 13.6601 11.6929Z" fill="#F25E57"/>
<path d="M7.60412 15.9099C7.61961 15.9977 7.56093 16.0821 7.47269 16.0976C7.38491 16.1136 7.30043 16.0549 7.28494 15.9671C7.26898 15.8784 7.32764 15.7944 7.41542 15.7785C7.50413 15.763 7.58816 15.8216 7.60412 15.9099Z" fill="#F25E57"/>
<path d="M5.09152 21.4308C5.10748 21.5191 5.0488 21.6031 4.96055 21.619C4.87231 21.6345 4.78829 21.5758 4.77233 21.4881C4.75684 21.3998 4.81506 21.3158 4.90377 21.2998C4.99155 21.2839 5.07557 21.3426 5.09152 21.4308Z" fill="#F25E57"/>
<path d="M11.9225 27.6577C11.9379 27.7459 11.8797 27.8299 11.791 27.8459C11.7033 27.8614 11.6192 27.8032 11.6033 27.7145C11.5873 27.6267 11.646 27.5427 11.7342 27.5267C11.8225 27.5108 11.9065 27.5694 11.9225 27.6577Z" fill="#F25E57"/>
<path d="M9.26867 33.7921C9.28463 33.8803 9.22596 33.9648 9.13771 33.9803C9.04994 33.9963 8.96545 33.9371 8.94996 33.8494C8.934 33.7611 8.99267 33.6766 9.08044 33.6611C9.16916 33.6452 9.25318 33.7043 9.26867 33.7921Z" fill="#F25E57"/>
<path d="M32.8591 4.75725C32.875 4.84503 32.8163 4.92951 32.7281 4.945C32.6399 4.96096 32.5558 4.90229 32.5399 4.81451C32.5244 4.72627 32.5831 4.64225 32.6708 4.62629C32.7591 4.6108 32.8436 4.66901 32.8591 4.75725Z" fill="#F25E57"/>
<path d="M32.8507 12.1266C32.8662 12.2149 32.808 12.2989 32.7197 12.3148C32.6315 12.3303 32.5474 12.2717 32.5315 12.1834C32.5155 12.0952 32.5742 12.0111 32.6625 11.9952C32.7507 11.9792 32.8347 12.0379 32.8507 12.1266Z" fill="#F25E57"/>
<path d="M20.6776 14.4703C20.6936 14.5585 20.6344 14.6425 20.5466 14.6585C20.4584 14.674 20.3744 14.6153 20.3584 14.5275C20.3429 14.4393 20.4011 14.3548 20.4894 14.3393C20.5776 14.3233 20.6616 14.382 20.6776 14.4703Z" fill="#F25E57"/>
<path d="M14.5854 7.00795C14.6009 7.09573 14.5427 7.18022 14.454 7.19618C14.3662 7.21214 14.2817 7.15299 14.2658 7.06522C14.2498 6.97697 14.309 6.89248 14.3972 6.87699C14.4855 6.86103 14.5695 6.91971 14.5854 7.00795Z" fill="#F25E57"/>
<path d="M24.1886 9.80784C24.2045 9.89655 24.1459 9.98057 24.0581 9.99606C23.9698 10.012 23.8854 9.95335 23.8699 9.86511C23.8539 9.77733 23.9126 9.69284 24.0008 9.67735C24.0891 9.66139 24.1731 9.72006 24.1886 9.80784Z" fill="#F25E57"/>
<path d="M15.1918 21.1694C15.2073 21.2576 15.149 21.3421 15.0603 21.3576C14.9726 21.3735 14.8881 21.3149 14.8721 21.2266C14.8566 21.1384 14.9153 21.0539 15.0035 21.0384C15.0918 21.0224 15.1758 21.0816 15.1918 21.1694Z" fill="#F25E57"/>
<path d="M34.6516 15.6916C34.667 15.7799 34.6084 15.8639 34.5206 15.8798C34.4324 15.8953 34.3479 15.8371 34.3324 15.7484C34.3164 15.6606 34.3756 15.5766 34.4633 15.5606C34.5516 15.5447 34.6356 15.6034 34.6516 15.6916Z" fill="#F25E57"/>
<path d="M21.6162 24.065C21.6322 24.1533 21.5735 24.2373 21.4853 24.2532C21.397 24.2687 21.313 24.2105 21.2971 24.1223C21.2816 24.034 21.3398 23.95 21.428 23.934C21.5163 23.9181 21.6003 23.9768 21.6162 24.065Z" fill="#F25E57"/>
<path d="M23.144 6.66108C23.16 6.74932 23.1013 6.83334 23.0131 6.8493C22.9248 6.86479 22.8408 6.80612 22.8249 6.71787C22.8094 6.6301 22.8676 6.5456 22.9563 6.53011C23.0441 6.51415 23.1281 6.57283 23.144 6.66108Z" fill="#F25E57"/>
<path d="M15.9982 13.1198C16.0212 13.2489 15.9349 13.3724 15.8058 13.3958C15.6762 13.4188 15.5528 13.3329 15.5298 13.2034C15.5063 13.0743 15.5922 12.9504 15.7222 12.9274C15.8508 12.9039 15.9748 12.9903 15.9982 13.1198Z" fill="#F25E57"/>
<path d="M28.5077 12.3322C28.5307 12.4618 28.4444 12.5852 28.3153 12.6082C28.1857 12.6317 28.0623 12.5453 28.0393 12.4162C28.0163 12.2867 28.1022 12.1632 28.2313 12.1402C28.3608 12.1172 28.4843 12.2031 28.5077 12.3322Z" fill="#F25E57"/>
<path d="M21.1529 20.1245C21.1759 20.2536 21.09 20.3775 20.9604 20.4005C20.8309 20.424 20.7074 20.3376 20.6844 20.2085C20.6614 20.079 20.7473 19.9555 20.8764 19.932C21.006 19.909 21.1299 19.9949 21.1529 20.1245Z" fill="#F25E57"/>
<path d="M14.5 23.3834C14.5234 23.513 14.4371 23.6364 14.3075 23.6594C14.178 23.6829 14.055 23.597 14.0315 23.467C14.0085 23.3379 14.0944 23.2145 14.2235 23.191C14.353 23.168 14.477 23.2544 14.5 23.3834Z" fill="#F25E57"/>
<path d="M9.15605 27.2418C9.17952 27.3713 9.09315 27.4953 8.9636 27.5183C8.83452 27.5413 8.71106 27.4554 8.68759 27.3258C8.66459 27.1963 8.75096 27.0728 8.88004 27.0498C9.00912 27.0268 9.13305 27.1127 9.15605 27.2418Z" fill="#F25E57"/>
<path d="M5.96087 29.9131C5.98387 30.0422 5.89797 30.1656 5.76842 30.1891C5.63934 30.2121 5.51589 30.1262 5.49289 29.9966C5.46942 29.8676 5.55532 29.7436 5.68487 29.7206C5.81395 29.6972 5.93741 29.7835 5.96087 29.9131Z" fill="#F25E57"/>
<path d="M11.6586 19.6429C11.6821 19.7725 11.5962 19.8964 11.4662 19.9194C11.3376 19.9424 11.2137 19.8565 11.1902 19.7269C11.1672 19.5974 11.2536 19.4739 11.3826 19.4505C11.5122 19.4275 11.6356 19.5138 11.6586 19.6429Z" fill="#F25E57"/>
<path d="M7.19333 23.1197C7.21633 23.2497 7.13043 23.3731 7.00088 23.3961C6.87179 23.4191 6.74787 23.3332 6.72487 23.2037C6.7014 23.0746 6.78777 22.9507 6.91732 22.9277C7.0464 22.9047 7.16986 22.9906 7.19333 23.1197Z" fill="#F25E57"/>
<path d="M10.1294 15.8639C10.1529 15.9934 10.067 16.1169 9.93741 16.1399C9.80833 16.1633 9.68441 16.0774 9.66141 15.9474C9.63794 15.8183 9.72431 15.6949 9.85386 15.6714C9.98294 15.6484 10.1064 15.7348 10.1294 15.8639Z" fill="#F25E57"/>
<path d="M30.7341 14.5763C30.7571 14.7059 30.6711 14.8293 30.5421 14.8528C30.4125 14.8758 30.2891 14.7894 30.2661 14.6599C30.2431 14.5308 30.3285 14.4069 30.458 14.3839C30.5876 14.3609 30.7111 14.4468 30.7341 14.5763Z" fill="#F25E57"/>
<path d="M30.8777 8.85265C30.9007 8.9822 30.8143 9.10565 30.6852 9.12912C30.5562 9.15212 30.4322 9.06622 30.4092 8.9362C30.3858 8.80712 30.4721 8.6832 30.6012 8.6602C30.7308 8.6372 30.8542 8.7231 30.8777 8.85265Z" fill="#F25E57"/>
<path d="M20.0941 6.26351C20.1171 6.39259 20.0312 6.51651 19.9016 6.53951C19.7721 6.56298 19.6486 6.47661 19.6256 6.34753C19.6026 6.21798 19.6885 6.09453 19.8176 6.07106C19.9472 6.04806 20.0711 6.13396 20.0941 6.26351Z" fill="#F25E57"/>
</g>
<defs>
<linearGradient id="paint0_linear_805_73" x1="20.1179" y1="30.0943" x2="20.1179" y2="59.0704" gradientUnits="userSpaceOnUse">
<stop stop-color="#E5524B"/>
<stop offset="1" stop-color="#ECECEC"/>
</linearGradient>
</defs>
</svg>
